<?xml version="1.0" encoding="UTF-8" standalone="no"?>
<!-- Created with Inkscape (http://www.inkscape.org/) -->

<svg
   xmlns:dc="http://purl.org/dc/elements/1.1/"
   xmlns:cc="http://creativecommons.org/ns#"
   xmlns:rdf="http://www.w3.org/1999/02/22-rdf-syntax-ns#"
   xmlns:svg="http://www.w3.org/2000/svg"
   xmlns="http://www.w3.org/2000/svg"
   xmlns:sodipodi="http://sodipodi.sourceforge.net/DTD/sodipodi-0.dtd"
   xmlns:inkscape="http://www.inkscape.org/namespaces/inkscape"
   id="svg2"
   version="1.1"
   inkscape:version="0.48.4 r9939"
   width="177.16534"
   height="177.16534"
   sodipodi:docname="ovpntech_key.svg">
  <metadata
     id="metadata8">
    <rdf:RDF>
      <cc:Work
         rdf:about="">
        <dc:format>image/svg+xml</dc:format>
        <dc:type
           rdf:resource="http://purl.org/dc/dcmitype/StillImage" />
        <dc:title></dc:title>
      </cc:Work>
    </rdf:RDF>
  </metadata>
  <defs
     id="defs6" />
  <sodipodi:namedview
     pagecolor="#ffffff"
     bordercolor="#666666"
     borderopacity="1"
     objecttolerance="10"
     gridtolerance="10"
     guidetolerance="10"
     inkscape:pageopacity="0"
     inkscape:pageshadow="2"
     inkscape:window-width="1797"
     inkscape:window-height="1326"
     id="namedview4"
     showgrid="false"
     inkscape:snap-global="false"
     inkscape:zoom="3.8808651"
     inkscape:cx="95.871483"
     inkscape:cy="59.878968"
     inkscape:window-x="2123"
     inkscape:window-y="0"
     inkscape:window-maximized="0"
     inkscape:current-layer="svg2"
     inkscape:document-units="mm"
     units="mm">
    <inkscape:grid
       type="xygrid"
       id="grid2987"
       empspacing="5"
       visible="true"
       enabled="true"
       snapvisiblegridlinesonly="true" />
  </sodipodi:namedview>
  <g
     id="g3811"
     transform="matrix(4.0192066,0,0,4.0192066,204.41431,10.90101)">
    <path
       id="path2991"
       d="m -28.8125,-2 c -10.89724,0.025409 -20.244846,8.2973834 -21.34375,19.375 -0.874261,8.813078 3.711497,16.931999 11,20.96875 l 2.625,-11.0625 c -2.24844,-2.250411 -3.495147,-5.458713 -3.15625,-8.875 0.562229,-5.667618 5.330918,-9.8932504 10.90625,-9.90625 0.371689,-8.666e-4 0.747159,0.025018 1.125,0.0625 6.045459,0.599711 10.443462,5.985791 9.84375,12.03125 -0.260492,2.62592 -1.426823,4.953249 -3.15625,6.6875 l 2.625,11.0625 c 5.986443,-3.30809 10.2756612,-9.416975 11,-16.71875 C -6.1715861,9.8088746 -14.808876,-0.73408604 -26.625,-1.90625 -27.363508,-1.9795102 -28.086017,-2.0016939 -28.8125,-2 z"
       style="fill:#f58220;fill-opacity:1;stroke:none"
       inkscape:connector-curvature="0" />
    <path
       id="path3776"
       d="m -29.125,13 c -0.427982,0.02569 -0.85097,0.103457 -1.28125,0.21875 -3.442238,0.922345 -5.484845,4.464011 -4.5625,7.90625 0.50542,1.886254 1.776091,3.336809 3.40625,4.125 l -2.75,15.03125 c 3.645441,0.976793 7.479559,0.976793 11.125,0 l -2.8125,-15 c 2.772576,-1.304598 4.289304,-4.437653 3.46875,-7.5 C -23.338302,14.769291 -26.129127,12.820163 -29.125,13 z"
       style="fill:#0a3565;fill-opacity:1;stroke:none"
       inkscape:connector-curvature="0" />
  </g>
</svg>
